<?xml version="1.0" encoding="iso-8859-1"?>
<!-- Generator: Adobe Illustrator 19.0.0, SVG Export Plug-In . SVG Version: 6.00 Build 0)  -->
<svg version="1.1" id="Capa_1" xmlns="http://www.w3.org/2000/svg" xmlns:xlink="http://www.w3.org/1999/xlink" x="0px" y="0px"
	 viewBox="0 0 375.467 375.467" style="enable-background:new 0 0 375.467 375.467;" xml:space="preserve">
<path style="fill:#EA3457;" d="M34.133,225.28c-3.773,0-6.827-3.057-6.827-6.827v-68.267c0-3.77,3.053-6.827,6.827-6.827
	s6.827,3.057,6.827,6.827v68.267C40.96,222.223,37.907,225.28,34.133,225.28z"/>
<g>
	<path style="fill:#602F75;" d="M54.613,245.76c-3.773,0-6.827-3.057-6.827-6.827V129.707c0-3.77,3.053-6.827,6.827-6.827
		s6.827,3.057,6.827,6.827v109.227C61.44,242.703,58.387,245.76,54.613,245.76z"/>
	<path style="fill:#602F75;" d="M95.573,225.28c-3.773,0-6.827-3.057-6.827-6.827v-68.267c0-3.77,3.053-6.827,6.827-6.827
		s6.827,3.057,6.827,6.827v68.267C102.4,222.223,99.347,225.28,95.573,225.28z"/>
</g>
<path style="fill:#EA3457;" d="M116.053,245.76c-3.773,0-6.827-3.057-6.827-6.827V129.707c0-3.77,3.053-6.827,6.827-6.827
	s6.827,3.057,6.827,6.827v109.227C122.88,242.703,119.827,245.76,116.053,245.76z"/>
<path style="fill:#FFE600;" d="M136.533,252.587c-3.773,0-6.827-3.057-6.827-6.827V122.88c0-3.77,3.053-6.827,6.827-6.827
	s6.827,3.057,6.827,6.827v122.88C143.36,249.53,140.307,252.587,136.533,252.587z"/>
<path style="fill:#EA3457;" d="M157.013,245.76c-3.773,0-6.827-3.057-6.827-6.827V129.707c0-3.77,3.053-6.827,6.827-6.827
	s6.827,3.057,6.827,6.827v109.227C163.84,242.703,160.787,245.76,157.013,245.76z"/>
<path style="fill:#00E7FF;" d="M75.093,300.373c-3.773,0-6.827-3.057-6.827-6.827V81.92c0-3.77,3.053-6.827,6.827-6.827
	s6.827,3.057,6.827,6.827v211.627C81.92,297.317,78.867,300.373,75.093,300.373z"/>
<path style="fill:#602F75;" d="M259.413,225.28c-3.773,0-6.827-3.057-6.827-6.827v-68.267c0-3.77,3.053-6.827,6.827-6.827
	c3.773,0,6.827,3.057,6.827,6.827v68.267C266.24,222.223,263.187,225.28,259.413,225.28z"/>
<path style="fill:#EA3457;" d="M279.893,245.76c-3.773,0-6.827-3.057-6.827-6.827V129.707c0-3.77,3.053-6.827,6.827-6.827
	s6.827,3.057,6.827,6.827v109.227C286.72,242.703,283.667,245.76,279.893,245.76z"/>
<path style="fill:#602F75;" d="M320.853,225.28c-3.773,0-6.827-3.057-6.827-6.827v-68.267c0-3.77,3.053-6.827,6.827-6.827
	s6.827,3.057,6.827,6.827v68.267C327.68,222.223,324.627,225.28,320.853,225.28z"/>
<path style="fill:#00E7FF;" d="M341.333,245.76c-3.773,0-6.827-3.057-6.827-6.827V129.707c0-3.77,3.053-6.827,6.827-6.827
	s6.827,3.057,6.827,6.827v109.227C348.16,242.703,345.107,245.76,341.333,245.76z"/>
<g>
	<path style="fill:#FFE600;" d="M300.373,300.373c-3.773,0-6.827-3.057-6.827-6.827V81.92c0-3.77,3.053-6.827,6.827-6.827
		s6.827,3.057,6.827,6.827v211.627C307.2,297.317,304.147,300.373,300.373,300.373z"/>
	<path style="fill:#FFE600;" d="M177.493,225.28c-3.773,0-6.827-3.057-6.827-6.827v-68.267c0-3.77,3.053-6.827,6.827-6.827
		s6.827,3.057,6.827,6.827v68.267C184.32,222.223,181.267,225.28,177.493,225.28z"/>
</g>
<path style="fill:#602F75;" d="M197.973,245.76c-3.773,0-6.827-3.057-6.827-6.827V129.707c0-3.77,3.053-6.827,6.827-6.827
	s6.827,3.057,6.827,6.827v109.227C204.8,242.703,201.747,245.76,197.973,245.76z"/>
<path style="fill:#FFE600;" d="M218.453,300.373c-3.773,0-6.827-3.057-6.827-6.827V81.92c0-3.77,3.053-6.827,6.827-6.827
	s6.827,3.057,6.827,6.827v211.627C225.28,297.317,222.227,300.373,218.453,300.373z"/>
<path style="fill:#00E7FF;" d="M238.933,320.853c-3.773,0-6.827-3.057-6.827-6.827V61.44c0-3.77,3.053-6.827,6.827-6.827
	s6.827,3.057,6.827,6.827v252.587C245.76,317.797,242.707,320.853,238.933,320.853z"/>
<polyline style="fill:#EA3457;" points="103.139,368.64 6.827,368.64 6.827,341.333 368.64,341.333 368.64,368.64 136.532,368.64 
	"/>
<path style="fill:#602F75;" d="M368.64,375.467H136.533c-3.773,0-6.827-3.057-6.827-6.827s3.053-6.827,6.827-6.827h225.28V348.16
	H13.653v13.653h89.487c3.773,0,6.827,3.057,6.827,6.827c0,3.77-3.053,6.827-6.827,6.827H6.827C3.053,375.467,0,372.41,0,368.64
	v-27.307c0-3.77,3.053-6.827,6.827-6.827H368.64c3.773,0,6.827,3.057,6.827,6.827v27.307
	C375.467,372.41,372.413,375.467,368.64,375.467z"/>
<g>
	<polyline style="fill:#00E7FF;" points="300.373,34.133 6.827,34.133 6.827,6.827 368.64,6.827 368.64,34.133 341.333,34.133 	"/>
</g>
<path style="fill:#602F75;" d="M368.64,40.96h-27.307c-3.773,0-6.827-3.057-6.827-6.827c0-3.77,3.053-6.827,6.827-6.827h20.48
	V13.653H13.653v13.653h286.72c3.773,0,6.827,3.057,6.827,6.827c0,3.77-3.053,6.827-6.827,6.827H6.827C3.053,40.96,0,37.903,0,34.133
	V6.827C0,3.057,3.053,0,6.827,0H368.64c3.773,0,6.827,3.057,6.827,6.827v27.307C375.467,37.903,372.413,40.96,368.64,40.96z"/>
<g>
</g>
<g>
</g>
<g>
</g>
<g>
</g>
<g>
</g>
<g>
</g>
<g>
</g>
<g>
</g>
<g>
</g>
<g>
</g>
<g>
</g>
<g>
</g>
<g>
</g>
<g>
</g>
<g>
</g>
</svg>
